<svg width="75" height="75" viewBox="0 0 75 75" fill="none" xmlns="http://www.w3.org/2000/svg">
<path d="M70.7777 22.0533C70.7772 20.7926 70.5082 19.6785 69.9643 18.7224C69.43 17.7823 68.6298 16.9942 67.5565 16.3712C58.6967 11.2503 49.8283 6.14507 40.9714 1.01896C38.5836 -0.362869 36.2684 -0.312492 33.8984 1.08917C30.3719 3.17391 12.7161 13.3136 7.45492 16.3683C5.28821 17.6256 4.23389 19.5499 4.23337 22.0509C4.22998 32.3494 4.23337 42.6475 4.22998 52.9462C4.2305 54.1793 4.48803 55.2716 5.00803 56.2134C5.54261 57.182 6.35399 57.9917 7.45205 58.6288C12.7135 61.6835 30.3716 71.8224 33.8973 73.9077C36.2684 75.3102 38.5836 75.3603 40.9721 73.9779C49.8293 68.8516 58.6982 63.7466 67.5593 58.6257C68.6574 57.9888 69.4688 57.1786 70.0033 56.2108C70.5226 55.269 70.7806 54.1766 70.7811 52.9433C70.7811 52.9433 70.7811 32.352 70.7777 22.0533Z" fill="#5C8DBC"/>
<path d="M37.6074 37.3982L5.00806 56.2133C5.54264 57.182 6.35402 57.9917 7.45208 58.6288C12.7135 61.6835 30.3717 71.8224 33.8974 73.9077C36.2685 75.3101 38.5836 75.3603 40.9722 73.9779C49.8294 68.8515 58.6983 63.7466 67.5594 58.6257C68.6574 57.9888 69.4688 57.1786 70.0034 56.2107L37.6074 37.3982Z" fill="#1A4674"/>
<path d="M27.9519 42.9714C29.8489 46.291 33.4149 48.53 37.5056 48.53C41.6216 48.53 45.208 46.2626 47.0953 42.9075L37.6075 37.3982L27.9519 42.9714Z" fill="#1A4674"/>
<path d="M70.7778 22.0533C70.7773 20.7925 70.5083 19.6785 69.9643 18.7224L37.6074 37.3982L70.0034 56.2107C70.5226 55.269 70.7807 54.1766 70.7812 52.9433C70.7812 52.9433 70.7812 32.3519 70.7778 22.0533Z" fill="#1B598E"/>
<path d="M68.9964 38.7429H66.4649V41.2811H63.9329V38.7429H61.4016V36.2056H63.9329V33.668H66.4649V36.2056H68.9964V38.7429ZM59.7591 38.7429H57.2278V41.2811H54.6963V38.7429H52.1648V36.2056H54.6963V33.668H57.2278V36.2056H59.7591V38.7429Z" fill="white"/>
<path d="M47.0952 42.9075C45.2079 46.2626 41.6216 48.53 37.5056 48.53C33.4148 48.53 29.8488 46.291 27.9518 42.9714C26.9989 41.3057 26.4984 39.4186 26.5004 37.4984C26.5004 31.406 31.4278 26.467 37.5056 26.467C41.57 26.467 45.1173 28.6781 47.0236 31.9638L56.6427 26.4114C52.8194 19.7957 45.6813 15.3448 37.5056 15.3448C25.2995 15.3448 15.4049 25.2635 15.4049 37.4984C15.4049 41.5123 16.4702 45.2765 18.332 48.5232C22.1456 55.174 29.304 59.6522 37.5056 59.6522C45.7222 59.6522 52.8918 55.156 56.7 48.4857L47.0952 42.9075Z" fill="white"/>
</svg>
