<svg width="75" height="75" viewBox="0 0 75 75" fill="none" xmlns="http://www.w3.org/2000/svg">
<path d="M70.5337 22.202C70.5332 20.9533 70.2661 19.85 69.7261 18.9032C69.1956 17.9718 68.4011 17.1913 67.3355 16.5742C58.5392 11.5022 49.7344 6.44573 40.9409 1.36857C38.5703 -6.01709e-05 36.2717 0.0500937 33.9186 1.43837C30.4174 3.50295 12.8882 13.5458 7.66472 16.5714C5.51353 17.8169 4.46677 19.7228 4.46625 22.1997C4.46289 32.3998 4.46625 42.5998 4.46289 52.7999C4.46289 54.0212 4.71909 55.1034 5.23536 56.0359C5.76611 56.9953 6.57167 57.7972 7.66187 58.4283C12.8856 61.4538 30.4172 71.4959 33.9176 73.5612C36.2717 74.9503 38.5703 74.9999 40.9417 73.6311C49.7354 68.5536 58.5408 63.4972 67.3384 58.4252C68.4286 57.7944 69.2341 56.9919 69.7649 56.0333C70.2804 55.1005 70.5371 54.0186 70.5371 52.7971C70.5371 52.7971 70.5371 32.4024 70.5337 22.202Z" fill="#A179DC"/>
<path d="M37.6011 37.4005L5.23535 56.036C5.7661 56.9954 6.57166 57.7973 7.66186 58.4284C12.8856 61.4539 30.4172 71.496 33.9176 73.5614C36.2717 74.9504 38.5703 75 40.9417 73.6312C49.7354 68.5537 58.5408 63.4973 67.3383 58.4253C68.4285 57.7945 69.2341 56.992 69.7649 56.0334L37.6011 37.4005Z" fill="#280068"/>
<path d="M70.5337 22.2021C70.5332 20.9534 70.2662 19.85 69.7261 18.9033L37.6011 37.4007L69.7649 56.0334C70.2804 55.1006 70.5366 54.0187 70.5371 52.7972C70.5371 52.7972 70.5371 32.4024 70.5337 22.2021Z" fill="#390091"/>
<path d="M56.6569 30.434V33.9173H60.1403V30.434H61.8819V33.9173H65.3653V35.659H61.8819V39.1421H65.3653V40.8838H61.8819V44.3671H60.1403V40.8838H56.6569V44.3671H54.9152V40.8838H51.4321V39.1421H54.9152V35.659H51.4321V33.9173H54.9152V30.434H56.6569ZM60.1403 35.6587H56.6569V39.1421H60.1403V35.6587Z" fill="white"/>
<path d="M37.6721 12.9402C46.7577 12.9402 54.69 17.8744 58.9389 25.2087L58.8975 25.1381L48.2075 31.2931C46.1016 27.7273 42.2408 25.3207 37.8115 25.271L37.6719 25.2702C30.9179 25.2702 25.4424 30.7458 25.4424 37.4997C25.4402 39.6285 25.9963 41.7206 27.0553 43.5673C29.1633 47.2474 33.1262 49.7295 37.6721 49.7295C42.2462 49.7295 46.2316 47.2159 48.3288 43.4965L48.2778 43.5857L58.9515 49.7691C54.7492 57.0413 46.9255 61.9603 37.9457 62.0583L37.6721 62.0598C28.5579 62.0598 20.6031 57.0951 16.3648 49.722C14.2958 46.1226 13.1121 41.9497 13.1121 37.4997C13.1121 23.936 24.1079 12.9402 37.6721 12.9402Z" fill="white"/>
</svg>
