<svg width="75" height="75" viewBox="0 0 75 75" fill="none" xmlns="http://www.w3.org/2000/svg">
<g clip-path="url(#clip0_0_568)">
<path d="M24.4219 0.0468161C24.2285 0.0819724 24.0293 0.117129 23.8594 0.234316C23.1738 0.697207 23.0215 1.65814 23.4844 2.34369L26.7188 7.17182C21.7207 9.82025 17.9941 14.2206 16.7812 19.4999H58.2188C57.0059 14.2206 53.2793 9.82025 48.2812 7.17182L51.5156 2.34369C51.9785 1.65814 51.8262 0.697207 51.1406 0.234316C50.4492 -0.228575 49.4941 -0.0293558 49.0312 0.656191L45.4688 5.90619C42.9961 5.00385 40.3125 4.49994 37.5 4.49994C34.6875 4.49994 32.0039 5.00385 29.5312 5.90619L25.9688 0.656191C25.623 0.140566 24.9961 -0.064512 24.4219 0.0468161ZM29.25 11.9999C30.4922 11.9999 31.5 13.0078 31.5 14.2499C31.5 15.498 30.4922 16.4999 29.25 16.4999C28.002 16.4999 27 15.498 27 14.2499C27 13.0078 28.002 11.9999 29.25 11.9999ZM45.75 11.9999C46.998 11.9999 48 13.0078 48 14.2499C48 15.498 46.998 16.4999 45.75 16.4999C44.5078 16.4999 43.5 15.498 43.5 14.2499C43.5 13.0078 44.5078 11.9999 45.75 11.9999ZM12 22.4999C9.51562 22.4999 7.5 24.5156 7.5 26.9999V47.9999C7.5 50.4843 9.51562 52.4999 12 52.4999C12.5273 52.4999 13.0312 52.3886 13.5 52.2187V22.7812C13.0312 22.6113 12.5273 22.4999 12 22.4999ZM16.5 22.4999V55.4999C16.5 57.9785 18.5215 59.9999 21 59.9999H54C56.4785 59.9999 58.5 57.9785 58.5 55.4999V22.4999H16.5ZM63 22.4999C62.4727 22.4999 61.9688 22.6113 61.5 22.7812V52.2187C61.9688 52.3828 62.4727 52.4999 63 52.4999C65.4844 52.4999 67.5 50.4843 67.5 47.9999V26.9999C67.5 24.5156 65.4844 22.4999 63 22.4999ZM22.5 62.9999V68.9999C22.5 72.3105 25.1895 74.9999 28.5 74.9999C31.8105 74.9999 34.5 72.3105 34.5 68.9999V62.9999H22.5ZM40.5 62.9999V68.9999C40.5 72.3105 43.1895 74.9999 46.5 74.9999C49.8105 74.9999 52.5 72.3105 52.5 68.9999V62.9999H40.5Z" fill="#4BAA5B"/>
</g>
<defs>
<clipPath id="clip0_0_568">
<rect width="75" height="75" fill="white"/>
</clipPath>
</defs>
</svg>
