<svg width="75" height="75" viewBox="0 0 75 75" fill="none" xmlns="http://www.w3.org/2000/svg">
<path d="M66.791 52.125C65.1738 55.7168 64.3945 57.3223 62.3144 60.4922C59.4023 64.9219 55.2949 70.4531 50.2207 70.4883C45.7031 70.5293 44.5371 67.541 38.4023 67.5938C32.2734 67.623 30.9961 70.5469 26.4726 70.5C21.3925 70.4531 17.5078 65.4727 14.5957 61.0488C6.45114 48.6445 5.58981 34.1016 10.623 26.3672C14.1855 20.8828 19.8164 17.6602 25.1074 17.6602C30.498 17.6602 33.8847 20.6191 38.3379 20.6191C42.6621 20.6191 45.2929 17.6543 51.5273 17.6543C56.2383 17.6543 61.2187 20.2207 64.7812 24.6504C53.1328 31.0371 55.0254 47.6719 66.791 52.125ZM46.7929 12.7031C49.0605 9.79102 50.7832 5.68359 50.1562 1.5C46.459 1.75195 42.1347 4.11328 39.6093 7.17188C37.3183 9.96094 35.4199 14.0977 36.1582 18.0996C40.1953 18.2285 44.373 15.8203 46.7929 12.7031Z" fill="black"/>
</svg>
