<svg width="75" height="75" viewBox="0 0 75 75" fill="none" xmlns="http://www.w3.org/2000/svg">
<path fill-rule="evenodd" clip-rule="evenodd" d="M30.6713 39.7829C30.6713 39.7829 28.7071 40.9259 32.0707 41.312C36.1468 41.7774 38.2288 41.7105 42.7191 40.861C42.7191 40.861 43.9013 41.6012 45.5516 42.2416C35.4825 46.5562 22.7636 41.992 30.6713 39.7829ZM29.4405 34.1526C29.4405 34.1526 27.2369 35.7836 30.6035 36.1318C34.9577 36.5814 38.3947 36.6181 44.3459 35.473C44.3459 35.473 45.1676 36.3071 46.4607 36.7628C34.2883 40.323 20.7315 37.0431 29.4405 34.1526Z" fill="#3174B9"/>
<path fill-rule="evenodd" clip-rule="evenodd" d="M39.812 24.6006C42.2942 27.4578 39.1614 30.0274 39.1614 30.0274C39.1614 30.0274 45.4611 26.776 42.5677 22.7029C39.8662 18.9063 37.794 17.0201 49.0107 10.5156C49.0107 10.5156 31.4034 14.9113 39.812 24.6006Z" fill="#CA3132"/>
<path fill-rule="evenodd" clip-rule="evenodd" d="M53.1286 43.9477C53.1286 43.9477 54.5826 45.1466 51.527 46.0737C45.7167 47.8335 27.3393 48.3643 22.2346 46.1436C20.4009 45.345 23.8413 44.2378 24.9237 44.004C26.0526 43.76 26.6968 43.8044 26.6968 43.8044C24.6562 42.3675 13.5069 46.6266 21.0344 47.8485C41.5608 51.1767 58.4522 46.3501 53.1286 43.9477ZM31.6163 28.3183C31.6163 28.3183 22.2696 30.5389 28.3069 31.3461C30.8569 31.687 35.9365 31.6085 40.6717 31.2113C44.5404 30.8867 48.4237 30.1921 48.4237 30.1921C48.4237 30.1921 47.0606 30.777 46.0729 31.4502C36.5798 33.9473 18.2438 32.7843 23.523 30.2318C27.9865 28.0726 31.6163 28.3183 31.6163 28.3183ZM48.3849 37.6902C58.0341 32.6772 53.5728 27.8588 50.4579 28.5082C49.6963 28.6673 49.3546 28.8047 49.3546 28.8047C49.3546 28.8047 49.6388 28.3601 50.1789 28.169C56.3399 26.0038 61.0773 34.5566 48.1925 37.9437C48.192 37.9437 48.3405 37.8097 48.3849 37.6902Z" fill="#3174B9"/>
<path fill-rule="evenodd" clip-rule="evenodd" d="M42.5676 0.00964355C42.5676 0.00964355 47.9104 5.35583 37.4987 13.5741C29.149 20.1691 35.5951 23.9282 37.4962 28.2249C32.6214 23.8275 29.0458 19.9558 31.4443 16.3533C34.9658 11.0651 44.7234 8.50057 42.5676 0.00964355Z" fill="#CA3132"/>
<path fill-rule="evenodd" clip-rule="evenodd" d="M32.5655 51.2786C41.8261 51.8707 56.0497 50.9496 56.3872 46.5668C56.3872 46.5668 55.7396 48.2281 48.7329 49.546C40.8277 51.0341 31.0761 50.8609 25.2943 49.9065C25.2943 49.9065 26.4791 50.8869 32.5655 51.2786Z" fill="#3174B9"/>
<path fill-rule="evenodd" clip-rule="evenodd" d="M55.9593 59.1381H55.6778V58.9803H56.4376V59.1381H56.156V59.9265H55.9593V59.1381ZM57.4756 59.1774H57.4722L57.1923 59.9261H57.0639L56.7857 59.1774H56.7823V59.9261H56.5954V58.9798H56.8698L57.1275 59.6492L57.3852 58.9798H57.6569V59.9261H57.476L57.4756 59.1774ZM31.048 68.0228C30.1747 68.7797 29.2514 69.2055 28.4225 69.2055C27.2415 69.2055 26.6007 68.496 26.6007 67.3607C26.6007 66.1316 27.2868 65.2322 30.0326 65.2322H31.0476L31.048 68.0228ZM33.4585 70.7422V62.3238C33.4585 60.1723 32.2315 58.7524 29.2736 58.7524C27.5479 58.7524 26.035 59.1787 24.805 59.7218L25.1591 61.2129C26.128 60.857 27.3806 60.5273 28.6102 60.5273C30.3142 60.5273 31.0476 61.2129 31.0476 62.6323V63.6967H30.196C26.0568 63.6967 24.189 65.3026 24.189 67.7169C24.189 69.7972 25.4198 70.9799 27.7369 70.9799C29.2263 70.9799 30.3389 70.3651 31.3778 69.4653L31.5668 70.7422H33.4585ZM41.5036 70.7422H38.4979L34.8788 58.9666H37.5043L39.7505 66.2028L40.2506 68.377C41.3837 65.2322 42.1879 62.0397 42.5902 58.9666H45.1432C44.4598 62.8439 43.2285 67.1009 41.5036 70.7422ZM53.0386 68.0228C52.1627 68.7797 51.2394 69.2055 50.4122 69.2055C49.2313 69.2055 48.5913 68.496 48.5913 67.3607C48.5913 66.1316 49.2778 65.2322 52.0219 65.2322H53.0386V68.0228ZM55.4499 70.7422V62.3238C55.4499 60.1723 54.2191 58.7524 51.2642 58.7524C49.5367 58.7524 48.0243 59.1787 46.7943 59.7218L47.1484 61.2129C48.1173 60.857 49.3725 60.5273 50.6025 60.5273C52.3039 60.5273 53.0382 61.2129 53.0382 62.6323V63.6967H52.1866C48.0469 63.6967 46.1804 65.3026 46.1804 67.7169C46.1804 69.7972 47.4087 70.9799 49.7262 70.9799C51.2168 70.9799 52.3278 70.3651 53.3692 69.4653L53.5591 70.7422H55.4499ZM21.5459 72.7432C20.8591 73.747 19.7481 74.5419 18.5335 74.9902L17.3431 73.5883C18.2685 73.1135 19.0612 72.3468 19.4302 71.6335C19.7481 70.9978 19.8808 70.1803 19.8808 68.2238V54.7783H22.4427V68.0382C22.4427 70.6552 22.2337 71.7128 21.5459 72.7432Z" fill="#CA3132"/>
</svg>
