<svg width="75" height="75" viewBox="0 0 75 75" fill="none" xmlns="http://www.w3.org/2000/svg">
<g clip-path="url(#clip0_0_510)">
<path d="M37.0611 0.000609484C34.0046 0.0147302 31.0858 0.273912 28.5175 0.725772C20.9517 2.05477 19.578 4.83648 19.578 9.96641V16.7415H37.457V18.9999H19.578H12.8682C7.67208 18.9999 3.12221 22.1052 1.69907 28.0126C0.0574884 34.7839 -0.0153245 39.0092 1.69907 46.0795C2.96997 51.3423 6.00505 55.0922 11.2012 55.0922H17.3484V46.9704C17.3484 41.1029 22.4543 35.9272 28.5175 35.9272H46.3756C51.3467 35.9272 55.3151 31.8576 55.3151 26.8938V9.96641C55.3151 5.14879 51.2276 1.52981 46.3756 0.725772C43.3043 0.217429 40.1175 -0.0135114 37.0611 0.000609484ZM27.3923 5.44969C29.239 5.44969 30.7472 6.9737 30.7472 8.84759C30.7472 10.7148 29.239 12.2248 27.3923 12.2248C25.5389 12.2248 24.0373 10.7148 24.0373 8.84759C24.0373 6.9737 25.5389 5.44969 27.3923 5.44969Z" fill="url(#paint0_linear_0_510)"/>
<path d="M57.5382 18.9999V26.8938C57.5382 33.0138 52.3197 38.1649 46.369 38.1649H28.5109C23.6193 38.1649 19.5714 42.3276 19.5714 47.1983V64.1257C19.5714 68.9433 23.7847 71.777 28.5109 73.1592C34.1704 74.8138 39.5975 75.1128 46.369 73.1592C50.8701 71.8634 55.3085 69.2556 55.3085 64.1257V57.3506H37.4504V55.0922H55.3085H64.248C69.4441 55.0922 71.3804 51.4885 73.1875 46.0795C75.0541 40.511 74.9747 35.156 73.1875 28.0126C71.9033 22.8694 69.4507 18.9999 64.248 18.9999H57.5382ZM47.4943 61.8673C49.3477 61.8673 50.8492 63.3773 50.8492 65.2445C50.8492 67.1184 49.3477 68.6424 47.4943 68.6424C45.6475 68.6424 44.1394 67.1184 44.1394 65.2445C44.1394 63.3773 45.6475 61.8673 47.4943 61.8673Z" fill="url(#paint1_linear_0_510)"/>
</g>
<defs>
<linearGradient id="paint0_linear_0_510" x1="0.440429" y1="-1.92378e-07" x2="41.4685" y2="35.1624" gradientUnits="userSpaceOnUse">
<stop stop-color="#5A9FD4"/>
<stop offset="1" stop-color="#306998"/>
</linearGradient>
<linearGradient id="paint1_linear_0_510" x1="47.0646" y1="64.6749" x2="32.386" y2="43.9877" gradientUnits="userSpaceOnUse">
<stop stop-color="#FFD43B"/>
<stop offset="1" stop-color="#FFE873"/>
</linearGradient>
<clipPath id="clip0_0_510">
<rect width="75" height="75" fill="white"/>
</clipPath>
</defs>
</svg>
